# xmcd
#
# Track frame offsets:
#	150
#	16752
#	37065
#	48889
#	66050
#	79917
#	96625
#	108802
#	124185
#	141780
#	156252
#	174842
#	188957
#	205167
#	224725
#	242734
#
# Disc length: 3468 seconds
#
# Revision: 1
# Processed by: cddbd v1.5.2PL0 Copyright (c) Steve Scherf et al.
# Submitted via: audiograbber 1.83.01
#
DISCID=e20d8a10
DTITLE=Various Artist - MH1084
DYEAR=1900
DGENRE=Karaoke
TTITLE0=Travis, Randy - Deeper Than The Holler
TTITLE1=Alabama - You've Got The Touch
TTITLE2=Bandy, Moe and Joe Stamply - Just Good Ol' Boys
TTITLE3=Skaggs, Ricky - Lovin' Only Me
TTITLE4=Anderson, John - Swingin'
TTITLE5=Whitley, Keith - Miami, My Amy
TTITLE6=Conlee, John - Backside Of Thirty
TTITLE7=Rogers, Kenny - Love The World Away
TTITLE8=Van Shelton, Ricky - Keep It Between The Lines
TTITLE9=Shenandoah - Church On Cumberland Road, The
TTITLE10=Cash, Johnny - Ghost Riders In The Sky
TTITLE11=Reed, Jerry - East Bound And Down
TTITLE12=Denver, John - I'm Sorry
TTITLE13=Watson, Gene - Farewell Party
TTITLE14=Coe, David Allan - Mona Lisa Lost Her Smile
TTITLE15=Exile - I Don't Want To Be A Memory
EXTD=
EXTT0=
EXTT1=
EXTT2=
EXTT3=
EXTT4=
EXTT5=
EXTT6=
EXTT7=
EXTT8=
EXTT9=
EXTT10=
EXTT11=
EXTT12=
EXTT13=
EXTT14=
EXTT15=
PLAYORDER=
